<svg xmlns="http://www.w3.org/2000/svg" viewBox="0 0 644.93 644.93"><defs><style>.cls-1{fill:#9a314a;}</style></defs><g id="Icons"><rect class="cls-1" x="204.09" y="268.92" width="31.8" height="62.73"/><rect class="cls-1" x="204.09" y="340.48" width="31.8" height="66.25"/><rect class="cls-1" x="244.73" y="268.92" width="32.39" height="62.73"/><rect class="cls-1" x="244.73" y="340.48" width="32.39" height="66.25"/><rect class="cls-1" x="285.95" y="268.92" width="32.39" height="62.73"/><rect class="cls-1" x="285.95" y="340.48" width="32.39" height="66.25"/><path class="cls-1" d="M327.17,260.09a10,10,0,1,1,10-10A10,10,0,0,1,327.17,260.09Z"/><rect class="cls-1" x="327.17" y="268.92" width="32.39" height="62.73"/><rect class="cls-1" x="327.17" y="340.48" width="32.39" height="66.25"/><rect class="cls-1" x="368.4" y="268.92" width="32.39" height="62.73"/><rect class="cls-1" x="368.4" y="340.48" width="32.39" height="66.25"/><rect class="cls-1" x="409.63" y="268.92" width="33.56" height="62.73"/><rect class="cls-1" x="409.63" y="340.48" width="33.56" height="66.25"/><path class="cls-1" d="M322.46,0C144.37,0,0,144.37,0,322.46S144.37,644.93,322.46,644.93,644.93,500.56,644.93,322.46,500.56,0,322.46,0ZM499.72,268.92H475V422.05h-9.42v16.49H179.36V422.05h-7.07V268.92H145.2V237.13H316.83L425.46,136.54l19.9,21.52-85.42,79.07H499.72Z"/></g></svg>