<svg xmlns="http://www.w3.org/2000/svg" viewBox="0 0 644.28 644.76"><defs><style>.cls-1{fill:#9a314a;}.cls-2{fill:none;}</style></defs><g id="Icons"><path class="cls-1" d="M323.88,169.11C239.57,169.11,171,237.7,171,322s68.59,152.9,152.9,152.9,152.9-68.59,152.9-152.9S408.19,169.11,323.88,169.11ZM219.31,337.85A15.85,15.85,0,1,1,235.16,322,15.84,15.84,0,0,1,219.31,337.85Zm103,101.41a15.85,15.85,0,1,1,15.85-15.85A15.84,15.84,0,0,1,322.29,439.26Zm-9-111.12V206.2h20.32V307.81H435.19v20.33Z"/><path class="cls-1" d="M322.46,0C144.37,0,0,144.37,0,322.46S144.37,644.93,322.46,644.93,644.93,500.56,644.93,322.46,500.56,0,322.46,0Zm1.42,498.68c-97.41,0-176.67-79.26-176.67-176.67s79.26-176.67,176.67-176.67S500.55,224.59,500.55,322,421.3,498.68,323.88,498.68Z"/><path class="cls-2" d="M644.93,322.46c0,178.1-144.37,322.47-322.47,322.47S0,500.56,0,322.46,144.37,0,322.46,0,644.93,144.37,644.93,322.46Z"/></g></svg>