<svg xmlns="http://www.w3.org/2000/svg" viewBox="0 0 1848.68 644.93"><defs><style>.cls-1{fill:#9a314a;}</style></defs><g id="Icons"><path class="cls-1" d="M589.14,276.48c-35.1,0-50.81,32.53-50.81,64.77,0,37.11,21.07,64.05,50.09,64.05s50.1-27.24,50.1-64.77C638.52,309.68,623.07,276.48,589.14,276.48Zm235.57,32.64c-4.8-15.28-18.24-31.57-41.64-31.57-29.32,0-49,25.31-49,63,0,27.57,12.75,59.76,48.67,59.76,18.79,0,35-12,41.28-30.5a52.19,52.19,0,0,0,2.38-16V322.64C826.37,316.66,825.87,312.61,824.71,309.12Zm0,0c-4.8-15.28-18.24-31.57-41.64-31.57-29.32,0-49,25.31-49,63,0,27.57,12.75,59.76,48.67,59.76,18.79,0,35-12,41.28-30.5a52.19,52.19,0,0,0,2.38-16V322.64C826.37,316.66,825.87,312.61,824.71,309.12ZM589.14,276.48c-35.1,0-50.81,32.53-50.81,64.77,0,37.11,21.07,64.05,50.09,64.05s50.1-27.24,50.1-64.77C638.52,309.68,623.07,276.48,589.14,276.48Zm0,0c-35.1,0-50.81,32.53-50.81,64.77,0,37.11,21.07,64.05,50.09,64.05s50.1-27.24,50.1-64.77C638.52,309.68,623.07,276.48,589.14,276.48Zm235.57,32.64c-4.8-15.28-18.24-31.57-41.64-31.57-29.32,0-49,25.31-49,63,0,27.57,12.75,59.76,48.67,59.76,18.79,0,35-12,41.28-30.5a52.19,52.19,0,0,0,2.38-16V322.64C826.37,316.66,825.87,312.61,824.71,309.12ZM1084,210.29c-51.66,0-74.78,49.24-74.78,98,0,47.3,25.56,95.18,74.42,95.18,51.67,0,74.79-49.06,74.79-97.68C1158.4,259.81,1135.11,210.29,1084,210.29Zm0,0c-51.66,0-74.78,49.24-74.78,98,0,47.3,25.56,95.18,74.42,95.18,51.67,0,74.79-49.06,74.79-97.68C1158.4,259.81,1135.11,210.29,1084,210.29ZM824.71,309.12c-4.8-15.28-18.24-31.57-41.64-31.57-29.32,0-49,25.31-49,63,0,27.57,12.75,59.76,48.67,59.76,18.79,0,35-12,41.28-30.5a52.19,52.19,0,0,0,2.38-16V322.64C826.37,316.66,825.87,312.61,824.71,309.12ZM589.14,276.48c-35.1,0-50.81,32.53-50.81,64.77,0,37.11,21.07,64.05,50.09,64.05s50.1-27.24,50.1-64.77C638.52,309.68,623.07,276.48,589.14,276.48ZM1526.32,0H322.47A322.47,322.47,0,0,0,0,322.46C0,500.55,144.38,644.93,322.47,644.93H1526.32a322.47,322.47,0,0,0,322.46-322.47C1848.78,144.37,1704.41,0,1526.32,0ZM491.1,427.48a2.5,2.5,0,0,1-2.5,2.5H354.42a2.5,2.5,0,0,1-2.5-2.5V186.32a2.5,2.5,0,0,1,2.5-2.5h31.13a2.5,2.5,0,0,1,2.5,2.5V398.86H488.6a2.5,2.5,0,0,1,2.5,2.5ZM647.5,411.3c-15.89,14.58-37.38,22.61-60.51,22.61-50.34,0-85.51-37.66-85.51-91.59,0-28.36,8.88-52.38,25.68-69.47,15.84-16.11,38.1-25,62.7-25,25.09,0,46.58,8.81,62.16,25.48s23.7,39.46,23.7,66.11C675.72,369.51,666,394.35,647.5,411.3Zm215-109.41V402.43c0,40.21-7.88,65.17-25.53,80.94C818.1,501,791.4,504.76,772.33,504.76c-22.75,0-45.36-5.65-59-14.73a2.51,2.51,0,0,1-1-2.86l7.87-24a2.56,2.56,0,0,1,1.53-1.57,2.52,2.52,0,0,1,2.17.23c6.36,4,23.91,13.22,49.49,13.22,24.32,0,53.31-10.06,53.31-58V404.84c-12,15.61-31.06,24.42-53.31,24.42a71.47,71.47,0,0,1-54.85-25.1c-13.77-16-21.36-37.91-21.36-61.84,0-28.13,8.57-52.23,24.77-69.68,14.84-16,34.63-24.77,55.73-24.77,29.61,0,45.27,14.94,52.63,25.47l1-19.17a2.5,2.5,0,0,1,2.5-2.37h27.55a2.5,2.5,0,0,1,1.81.79,2.46,2.46,0,0,1,.68,1.85C863.17,267.62,862.5,281.15,862.5,301.89Zm300.21,98.87c-20.31,21.38-49,33.15-80.88,33.15-31.64,0-60-12.3-80-34.64-20.25-22.72-31-53.92-31-90.22,0-76.05,47.08-129.17,114.49-129.17,32.79,0,60.72,12.11,80.78,35,19.72,22.52,30.14,53.46,30.14,89.48C1196.32,344.29,1184.7,377.61,1162.71,400.76Zm219,28.42a2.52,2.52,0,0,1-1.84.8H1352a2.5,2.5,0,0,1-2.49-2.34l-1.38-21.8c-8.17,11.24-25.49,28.07-55.88,28.07-11.75,0-28.54-2.74-41.83-15.83-13.55-13.34-20.43-34.38-20.43-62.52V254.3a2.5,2.5,0,0,1,2.5-2.5h31.49a2.5,2.5,0,0,1,2.5,2.5v95.89c0,35.4,11.82,52.61,36.14,52.61,20.73,0,34.07-14.59,39.2-27.08a43.55,43.55,0,0,0,2.67-15.15V254.3a2.5,2.5,0,0,1,2.5-2.5h31.49a2.5,2.5,0,0,1,2.5,2.5v126c0,19.79.45,34.73,1.42,47A2.51,2.51,0,0,1,1381.71,429.18Zm133.76-150.91a2.49,2.49,0,0,1-2.5,2.5h-42.58v90.89c0,21.82,6.31,31.14,21.11,31.14a67.71,67.71,0,0,0,17.59-2.06,2.5,2.5,0,0,1,3.16,2.26l1.43,23.61a2.5,2.5,0,0,1-1.55,2.46c-7,2.9-17.26,4.49-28.86,4.49-15.37,0-27.76-4.86-35.83-14.05-8.75-9.13-12.82-24-12.82-46.78v-92h-24.34a2.49,2.49,0,0,1-2.5-2.5v-24a2.5,2.5,0,0,1,2.5-2.5h24.34v-39a2.51,2.51,0,0,1,1.85-2.42l30.77-8.23a2.5,2.5,0,0,1,3.15,2.42V251.8H1513a2.5,2.5,0,0,1,2.5,2.5Zm-431.5-68c-51.66,0-74.78,49.24-74.78,98,0,47.3,25.56,95.18,74.42,95.18,51.67,0,74.79-49.06,74.79-97.68C1158.4,259.81,1135.11,210.29,1084,210.29Zm-300.9,67.26c-29.32,0-49,25.31-49,63,0,27.57,12.75,59.76,48.67,59.76,18.79,0,35-12,41.28-30.5a52.19,52.19,0,0,0,2.38-16V322.64c0-6-.5-10-1.66-13.52C819.91,293.84,806.47,277.55,783.07,277.55Zm-193.93-1.07c-35.1,0-50.81,32.53-50.81,64.77,0,37.11,21.07,64.05,50.09,64.05s50.1-27.24,50.1-64.77C638.52,309.68,623.07,276.48,589.14,276.48Zm0,0c-35.1,0-50.81,32.53-50.81,64.77,0,37.11,21.07,64.05,50.09,64.05s50.1-27.24,50.1-64.77C638.52,309.68,623.07,276.48,589.14,276.48Zm235.57,32.64c-4.8-15.28-18.24-31.57-41.64-31.57-29.32,0-49,25.31-49,63,0,27.57,12.75,59.76,48.67,59.76,18.79,0,35-12,41.28-30.5a52.19,52.19,0,0,0,2.38-16V322.64C826.37,316.66,825.87,312.61,824.71,309.12ZM1084,210.29c-51.66,0-74.78,49.24-74.78,98,0,47.3,25.56,95.18,74.42,95.18,51.67,0,74.79-49.06,74.79-97.68C1158.4,259.81,1135.11,210.29,1084,210.29Zm0,0c-51.66,0-74.78,49.24-74.78,98,0,47.3,25.56,95.18,74.42,95.18,51.67,0,74.79-49.06,74.79-97.68C1158.4,259.81,1135.11,210.29,1084,210.29ZM824.71,309.12c-4.8-15.28-18.24-31.57-41.64-31.57-29.32,0-49,25.31-49,63,0,27.57,12.75,59.76,48.67,59.76,18.79,0,35-12,41.28-30.5a52.19,52.19,0,0,0,2.38-16V322.64C826.37,316.66,825.87,312.61,824.71,309.12ZM589.14,276.48c-35.1,0-50.81,32.53-50.81,64.77,0,37.11,21.07,64.05,50.09,64.05s50.1-27.24,50.1-64.77C638.52,309.68,623.07,276.48,589.14,276.48Zm0,0c-35.1,0-50.81,32.53-50.81,64.77,0,37.11,21.07,64.05,50.09,64.05s50.1-27.24,50.1-64.77C638.52,309.68,623.07,276.48,589.14,276.48Zm0,0c-35.1,0-50.81,32.53-50.81,64.77,0,37.11,21.07,64.05,50.09,64.05s50.1-27.24,50.1-64.77C638.52,309.68,623.07,276.48,589.14,276.48Z"/></g></svg>